<svg xmlns="http://www.w3.org/2000/svg" width="17" height="17" viewBox="0 0 17 17" fill="none">
  <g clip-path="url(#clip0_2675_13467)">
    <path d="M12.6417 3.95019L12.639 2.69705C12.6372 1.86985 11.9661 1.20022 11.1389 1.20026L9.6201 1.20033H3.6326C2.80388 1.20033 2.13218 1.87237 2.1326 2.7011L2.13696 11.201C2.13738 12.0291 2.80883 12.7002 3.63696 12.7002H4.59982M12.6417 3.95019V9.95007V11.2002C12.6417 12.0286 11.9701 12.7002 11.1417 12.7002H4.59982M12.6417 3.95019H13.6318C14.4603 3.95019 15.1318 4.62177 15.1318 5.45019V13.7002C15.1318 14.5286 14.4603 15.2002 13.6318 15.2002H6.09982C5.27139 15.2002 4.59982 14.5286 4.59982 13.7002V12.7002" stroke="#1A2029" stroke-width="1.5"/>
    <path fill-rule="evenodd" clip-rule="evenodd" d="M4.6001 4.9502C4.6001 4.53598 4.93588 4.2002 5.3501 4.2002H9.8815C10.2957 4.2002 10.6315 4.53598 10.6315 4.9502C10.6315 5.36441 10.2957 5.7002 9.8815 5.7002H5.3501C4.93588 5.7002 4.6001 5.36441 4.6001 4.9502Z" fill="#1A2029"/>
    <path fill-rule="evenodd" clip-rule="evenodd" d="M4.6001 8.44336C4.6001 8.02915 4.93588 7.69336 5.3501 7.69336H8.67522C9.08943 7.69336 9.42522 8.02915 9.42522 8.44336C9.42522 8.85757 9.08943 9.19336 8.67522 9.19336H5.3501C4.93588 9.19336 4.6001 8.85757 4.6001 8.44336Z" fill="#1A2029"/>
  </g>
  <defs>
    <clipPath id="clip0_2675_13467">
      <rect width="16" height="16" fill="white" transform="translate(0.631836 0.200195)"/>
    </clipPath>
  </defs>
</svg>